<svg aria-hidden="true" style="position: absolute; width: 0; height: 0; overflow: hidden;" version="1.1" xmlns="http://www.w3.org/2000/svg" xmlns:xlink="http://www.w3.org/1999/xlink">
<defs>

<symbol id="icon-search" viewBox="0 0 32 32">
<path d="M24.080 22.72l-4.16-4.16c2.040-2.6 1.84-6.4-0.56-8.76-1.24-1.24-2.92-1.96-4.72-1.96s-3.44 0.68-4.68 1.96c-1.28 1.24-1.96 2.92-1.96 4.68s0.68 3.44 1.96 4.72c1.24 1.24 2.92 1.96 4.72 1.96 1.48 0 2.92-0.48 4.080-1.4l4.16 4.16c0.16 0.16 0.36 0.24 0.6 0.24s0.44-0.080 0.6-0.24c0.28-0.32 0.28-0.88-0.040-1.2zM11.12 18c-0.92-0.92-1.44-2.2-1.44-3.52s0.52-2.56 1.44-3.52c0.96-0.92 2.2-1.44 3.52-1.44s2.56 0.52 3.52 1.44c1.92 1.96 1.92 5.080 0 7.040-0.92 0.92-2.2 1.44-3.52 1.44-1.32 0.040-2.56-0.48-3.52-1.44z"></path>
</symbol>

<symbol id="icon-img" viewBox="0 0 32 32">
<path d="M6.915 24h12.837c1.263 0 2.028-1.394 1.35-2.459l-6.419-10.086c-0.629-0.988-2.071-0.988-2.7 0l-6.419 10.086c-0.678 1.065 0.087 2.459 1.35 2.459z"></path>
<path d="M16.323 24h10.021c1.278 0 2.040-1.424 1.331-2.487l-5.010-7.516c-0.633-0.95-2.029-0.95-2.663 0l-5.010 7.516c-0.709 1.063 0.053 2.487 1.331 2.487z"></path>
</symbol>

<symbol id="icon-eye" viewBox="0 0 32 32">
<path  d="M13 16c0-1.657 1.343-3 3-3s3 1.343 3 3c0 1.657-1.343 3-3 3s-3-1.343-3-3z"></path>
<path  d="M2.667 16c0-2.186 0.567-2.922 1.7-4.394 2.263-2.94 6.058-6.272 11.633-6.272s9.371 3.333 11.633 6.272c1.133 1.472 1.7 2.208 1.7 4.394s-0.567 2.922-1.7 4.394c-2.263 2.94-6.058 6.272-11.633 6.272s-9.371-3.333-11.633-6.272c-1.133-1.472-1.7-2.208-1.7-4.394zM16 11c-2.761 0-5 2.239-5 5s2.239 5 5 5c2.761 0 5-2.239 5-5s-2.239-5-5-5z"></path>
</symbol>

<symbol id="icon-gallery-download" viewBox="0 0 32 32">
<path  d="M29.333 16.93c-0.002 1.959-0.017 3.625-0.128 4.991-0.129 1.586-0.394 2.911-0.987 4.011-0.261 0.485-0.583 0.92-0.974 1.311-1.11 1.11-2.524 1.613-4.316 1.853-1.751 0.235-3.995 0.235-6.858 0.235h-0.142c-2.863 0-5.107 0-6.858-0.235-1.792-0.241-3.206-0.744-4.316-1.853-0.984-0.984-1.492-2.209-1.762-3.728-0.265-1.492-0.314-3.349-0.324-5.655-0.003-0.586-0.003-1.207-0.003-1.861v-0.072c0-2.863-0-5.107 0.235-6.858 0.241-1.792 0.744-3.206 1.853-4.316s2.524-1.613 4.316-1.853c1.557-0.209 3.56-0.232 5.998-0.235 0.514-0.001 0.931 0.416 0.931 0.93s-0.417 0.93-0.931 0.931c-2.473 0.003-4.313 0.025-5.75 0.218-1.586 0.213-2.542 0.619-3.248 1.325s-1.112 1.662-1.325 3.248c-0.217 1.612-0.219 3.731-0.219 6.681 0 0.36 0 0.709 0 1.046l1.242-1.086c1.13-0.989 2.834-0.932 3.896 0.13l5.321 5.321c0.852 0.852 2.194 0.969 3.18 0.275l0.37-0.26c1.419-0.997 3.339-0.882 4.629 0.279l3.511 3.16c0.353-0.742 0.563-1.717 0.675-3.093 0.106-1.296 0.12-2.87 0.122-4.84 0.001-0.514 0.417-0.931 0.931-0.931s0.931 0.417 0.93 0.93z"></path>
<path  d="M23.333 2.667c-2.828 0-4.243 0-5.121 0.879s-0.879 2.293-0.879 5.121c0 2.828 0 4.243 0.879 5.121s2.293 0.879 5.121 0.879c2.828 0 4.243 0 5.121-0.879s0.879-2.293 0.879-5.121c0-2.828 0-4.243-0.879-5.121s-2.293-0.879-5.121-0.879zM26.040 10.040l-2 2c-0.391 0.391-1.024 0.391-1.414 0l-2-2c-0.391-0.391-0.391-1.024 0-1.414s1.024-0.391 1.414 0l0.293 0.293v-2.919c0-0.552 0.448-1 1-1s1 0.448 1 1v2.919l0.293-0.293c0.391-0.391 1.024-0.391 1.414 0s0.391 1.024 0 1.414z"></path>
</symbol>

<symbol id="icon-dialog" viewBox="0 0 32 32">
<path  d="M29.333 11.333c0-4.786-3.88-8.667-8.667-8.667-2.777 0-5.249 1.31-6.835 3.343 6.765 0.262 12.169 5.828 12.169 12.657 0 0.147-0.003 0.294-0.007 0.439l0.443 0.119c1.288 0.345 2.467-0.834 2.122-2.122l-0.17-0.635c-0.137-0.513-0.055-1.054 0.166-1.537 0.5-1.096 0.779-2.314 0.779-3.597z"></path>
<path  d="M24 18.667c0 5.891-4.776 10.667-10.667 10.667-1.647 0-3.207-0.373-4.6-1.040-0.479-0.229-1.021-0.31-1.534-0.173l-1.635 0.437c-1.288 0.345-2.467-0.834-2.122-2.122l0.437-1.635c0.137-0.513 0.057-1.055-0.172-1.534-0.667-1.393-1.040-2.953-1.040-4.6 0-5.891 4.776-10.667 10.667-10.667s10.667 4.776 10.667 10.667zM8.667 20c0.736 0 1.333-0.597 1.333-1.333s-0.597-1.333-1.333-1.333c-0.736 0-1.333 0.597-1.333 1.333s0.597 1.333 1.333 1.333zM13.333 20c0.736 0 1.333-0.597 1.333-1.333s-0.597-1.333-1.333-1.333c-0.736 0-1.333 0.597-1.333 1.333s0.597 1.333 1.333 1.333zM18 20c0.736 0 1.333-0.597 1.333-1.333s-0.597-1.333-1.333-1.333c-0.736 0-1.333 0.597-1.333 1.333s0.597 1.333 1.333 1.333z"></path>
</symbol>

<symbol id="icon-like" viewBox="0 0 32 32">
<path  d="M27.027 21.687l0.941-5.44c0.235-1.359-0.81-2.601-2.187-2.601h-6.908c-0.685 0-1.206-0.615-1.095-1.291l0.884-5.393c0.143-0.876 0.103-1.773-0.12-2.632-0.185-0.712-0.734-1.283-1.456-1.515l-0.193-0.062c-0.437-0.14-0.913-0.108-1.325 0.091-0.453 0.218-0.784 0.616-0.907 1.090l-0.634 2.445c-0.202 0.778-0.496 1.529-0.875 2.239-0.554 1.037-1.41 1.866-2.3 2.633l-1.918 1.653c-0.541 0.466-0.825 1.164-0.763 1.876l1.083 12.524c0.099 1.149 1.060 2.031 2.211 2.031h6.198c4.642 0 8.603-3.234 9.366-7.647z"></path>
<path  d="M3.957 12.647c0.535-0.023 0.993 0.379 1.039 0.913l1.295 14.982c0.083 0.962-0.675 1.792-1.643 1.792-0.912 0-1.649-0.74-1.649-1.65v-15.038c0-0.536 0.422-0.976 0.957-0.999z"></path>
</symbol>

<symbol id="icon-logo" viewBox="0 0 165 32">
<path d="M135.242 10.376c-0.898-0.636-1.551-1.28-1.551-2.075h-4.996c0 1.431-0.653 2.075-1.458 2.075h-1.334v14.528h25.942v-14.528h-16.696zM133.69 14.527h-4.675v-2.075h5.188v1.67zM142.471 22.607c-2.96 0-5.368-2.377-5.368-5.299s2.408-5.177 5.368-5.177c2.96 0 5.368 2.255 5.368 5.177s-2.408 5.299-5.368 5.299zM145.357 17.307c0 1.571-1.295 2.849-2.885 2.849s-2.886-1.278-2.886-2.849c0-1.571 1.294-2.849 2.886-2.849s2.885 1.278 2.885 2.849zM165.335 8.4l-6.459 16.465-4.956-1.987v-2.806l3.442 1.409 4.545-11.585-17.029-6.511-1.578 4.917h-2.842l2.906-8.302 21.972 8.401z"></path>
<path d="M8.771 7.364c4.278-0.098 8.294 3.382 8.746 7.648 0.541 3.75-1.665 7.644-5.122 9.166-2.094 1.040-4.459 0.72-6.711 0.773h-2.201v7.050h-3.486c0.007-5.44-0.014-10.88 0.011-16.32 0.114-4.052 3.432-7.682 7.439-8.221 0.438-0.065 0.882-0.097 1.324-0.096zM8.771 21.465c2.514 0.063 4.872-1.899 5.248-4.39 0.501-2.507-1.098-5.202-3.543-5.954-2.362-0.838-5.203 0.265-6.356 2.495-0.895 1.524-0.577 3.325-0.636 5.004v2.844c1.763 0 3.525 0 5.288 0z"></path>
<path d="M19.203 7.279h3.446v17.587h-3.446v-17.587z"></path>
<path d="M33.006 18.383h0.126l4.899 6.532h4.271l-6.657-9.044 5.904-8.541h-4.271l-4.145 6.029h-0.126l-4.145-6.029h-4.271l5.904 8.541-6.657 9.044h4.271z"></path>
<path d="M50.105 7.279c3.491-0.069 6.839 2.218 8.13 5.446 0.674 1.499 0.665 3.161 0.643 4.77v7.371c-3.111-0.011-6.222 0.021-9.332-0.017-3.576-0.175-6.846-2.782-7.869-6.203-0.938-2.975-0.159-6.429 2.050-8.65 1.65-1.707 3.995-2.739 6.378-2.717zM55.393 21.381c-0.015-1.956 0.031-3.913-0.026-5.867-0.206-2.62-2.633-4.815-5.263-4.748-2.5-0.060-4.857 1.879-5.248 4.354-0.458 2.375 0.905 4.963 3.172 5.849 1.396 0.609 2.938 0.358 4.414 0.411 0.983 0 1.967 0 2.95 0z"></path>
<path d="M69.369 7.364c4.128-0.102 7.985 3.146 8.643 7.212 0.746 3.853-1.431 8.016-5.019 9.602-3.506 1.655-8.015 0.589-10.426-2.444-1.494-1.76-2.138-4.101-2.011-6.383v-15.037h3.486v7.050c1.776 0 3.552-0 5.328 0zM69.369 21.465c2.647 0.071 5.067-2.152 5.261-4.786 0.332-2.618-1.608-5.25-4.199-5.726-1.433-0.196-2.888-0.064-4.331-0.103h-2.058c0.022 1.987-0.047 3.978 0.040 5.962 0.277 2.625 2.651 4.704 5.288 4.653z"></path>
<path d="M88.26 7.279c3.491-0.069 6.838 2.218 8.13 5.446 0.674 1.499 0.665 3.161 0.643 4.77v7.371c-3.111-0.011-6.222 0.021-9.332-0.017-3.576-0.175-6.846-2.782-7.869-6.203-0.939-2.975-0.159-6.429 2.050-8.65 1.65-1.707 3.995-2.739 6.377-2.717zM93.548 21.381c-0.015-1.956 0.031-3.913-0.026-5.867-0.206-2.62-2.633-4.815-5.263-4.748-2.5-0.060-4.857 1.879-5.248 4.354-0.458 2.375 0.905 4.963 3.172 5.849 1.396 0.609 2.938 0.358 4.414 0.411 0.983 0 1.967 0 2.95 0z"></path>
<path d="M116.218 7.322c-0.007 5.427 0.014 10.855-0.011 16.281-0.126 4.271-3.797 8.11-8.082 8.333-0.814 0.043-1.63 0.017-2.445 0.024v-3.486c1.487-0.007 3.079 0.144 4.396-0.699 1.645-0.923 2.691-2.785 2.654-4.667-3.090 2.491-7.88 2.362-10.884-0.21-2.189-1.767-3.385-4.61-3.216-7.408v-8.168h3.486c0.016 3.105-0.033 6.212 0.026 9.315 0.189 2.556 2.468 4.719 5.029 4.78 2.595 0.199 5.094-1.816 5.481-4.384 0.156-1.536 0.045-3.088 0.079-4.631v-5.081c1.162-0 2.325-0 3.487-0z"></path>
</symbol>
</defs>
</svg>
